<svg width="30" height="30" viewBox="0 0 30 30" fill="none" xmlns="http://www.w3.org/2000/svg">
<g clip-path="url(#clip0_5_348)">
<path d="M15 19.6875C17.5888 19.6875 19.6875 17.5888 19.6875 15C19.6875 12.4112 17.5888 10.3125 15 10.3125C12.4112 10.3125 10.3125 12.4112 10.3125 15C10.3125 17.5888 12.4112 19.6875 15 19.6875Z" stroke="white" stroke-width="1.875" stroke-miterlimit="10"/>
<path d="M20.625 3.75H9.375C6.2684 3.75 3.75 6.2684 3.75 9.375V20.625C3.75 23.7316 6.2684 26.25 9.375 26.25H20.625C23.7316 26.25 26.25 23.7316 26.25 20.625V9.375C26.25 6.2684 23.7316 3.75 20.625 3.75Z" stroke="white" stroke-width="1.875" stroke-linecap="round" stroke-linejoin="round"/>
<path d="M21.0938 10.3125C21.8704 10.3125 22.5 9.6829 22.5 8.90625C22.5 8.1296 21.8704 7.5 21.0938 7.5C20.3171 7.5 19.6875 8.1296 19.6875 8.90625C19.6875 9.6829 20.3171 10.3125 21.0938 10.3125Z" fill="white"/>
</g>
<defs>
<clipPath id="clip0_5_348">
<rect width="30" height="30" fill="white"/>
</clipPath>
</defs>
</svg>
