<svg width="15" height="15" viewBox="0 0 15 15" fill="none" xmlns="http://www.w3.org/2000/svg">
<g clip-path="url(#clip0_2_274)">
<path d="M13.0812 6.86943L10.5749 9.03209L11.3385 12.2663C11.3806 12.4419 11.3697 12.626 11.3073 12.7954C11.2448 12.9648 11.1336 13.1119 10.9875 13.2181C10.8415 13.3244 10.6673 13.3849 10.4869 13.3921C10.3065 13.3994 10.128 13.353 9.97391 13.2588L7.16128 11.5278L4.34699 13.2588C4.19295 13.3524 4.01465 13.3984 3.83455 13.3909C3.65445 13.3834 3.4806 13.3228 3.33489 13.2166C3.18917 13.1105 3.07812 12.9637 3.0157 12.7946C2.95328 12.6255 2.94229 12.4417 2.98412 12.2663L3.75049 9.03209L1.24419 6.86943C1.1079 6.75164 1.00933 6.59631 0.960797 6.42284C0.912263 6.24936 0.915911 6.06543 0.971286 5.89402C1.02666 5.72261 1.13131 5.57131 1.27216 5.45901C1.41301 5.34672 1.58383 5.27841 1.76327 5.26262L5.04931 4.99751L6.31694 1.9298C6.38555 1.76261 6.50233 1.6196 6.65243 1.51895C6.80253 1.4183 6.97917 1.36456 7.15989 1.36456C7.34061 1.36456 7.51725 1.4183 7.66735 1.51895C7.81745 1.6196 7.93423 1.76261 8.00284 1.9298L9.26992 4.99751L12.556 5.26262C12.7358 5.27782 12.9071 5.34575 13.0484 5.45789C13.1898 5.57003 13.2949 5.72139 13.3506 5.89301C13.4064 6.06463 13.4102 6.24888 13.3617 6.42267C13.3131 6.59646 13.2144 6.75207 13.0778 6.86999L13.0812 6.86943Z" fill="#F4CE14" fill-opacity="0.75"/>
</g>
<defs>
<clipPath id="clip0_2_274">
<rect width="14.2581" height="14.2581" fill="white" transform="translate(0.0322571 0.472809)"/>
</clipPath>
</defs>
</svg>
