<svg width="30" height="30" viewBox="0 0 30 30" fill="none" xmlns="http://www.w3.org/2000/svg">
<g clip-path="url(#clip0_5_356)">
<path d="M19.6875 11.9531C21.5988 13.3288 23.8951 14.0669 26.25 14.0625V9.375C24.5095 9.375 22.8403 8.6836 21.6096 7.45289C20.3789 6.22218 19.6875 4.55298 19.6875 2.8125H15V18.2812C14.9998 18.8684 14.842 19.4447 14.5431 19.9501C14.2442 20.4555 13.8152 20.8714 13.3008 21.1545C12.7864 21.4376 12.2055 21.5775 11.6186 21.5596C11.0317 21.5417 10.4604 21.3666 9.96427 21.0527C9.4681 20.7387 9.06527 20.2974 8.79778 19.7747C8.53029 19.252 8.40796 18.6671 8.44353 18.0811C8.4791 17.495 8.67128 16.9292 9.00001 16.4427C9.32875 15.9562 9.78201 15.5669 10.3125 15.3152V10.3125C6.58242 10.977 3.75 14.3602 3.75 18.2812C3.75 20.3947 4.58956 22.4216 6.08399 23.916C7.57842 25.4104 9.60531 26.25 11.7188 26.25C13.8322 26.25 15.8591 25.4104 17.3535 23.916C18.8479 22.4216 19.6875 20.3947 19.6875 18.2812V11.9531Z" stroke="white" stroke-width="1.875" stroke-linecap="round" stroke-linejoin="round"/>
</g>
<defs>
<clipPath id="clip0_5_356">
<rect width="30" height="30" fill="white"/>
</clipPath>
</defs>
</svg>
